<svg width="208" height="222" viewBox="0 0 208 222" fill="none" xmlns="http://www.w3.org/2000/svg">
<path d="M171.61 117.333C207.463 74.6048 207.123 39.355 207.046 20.5458L207.19 19.9453C207.075 11.9191 203.733 7.31156 200.983 5.00386C198.021 2.51905 193.082 -0.185053 184.769 1.13155C166.199 3.9322 131.568 9.11933 94.8282 52.9043L57.7469 61.4411L0.562989 117.991L55.3726 114.959C51.3846 123.149 47.3979 131.337 44.1874 139.458C44.1874 139.458 44.0103 139.669 44.2213 139.846L44.0443 140.057L23.2142 204.402C22.3196 207.617 23.2263 211.262 25.7642 213.391C28.3022 215.521 31.872 215.992 35.0596 214.342L95.0212 182.831L95.1982 182.62C95.1982 182.62 95.3752 182.409 95.5862 182.586C103.027 178.016 110.397 172.666 117.77 167.317L124.268 221.433L170.029 155.298L171.61 117.333ZM52.9231 180.596L85.6576 121.045L105.965 138.085L52.9231 180.596ZM156.665 83.1649C150.052 83.7435 143.978 81.5309 139.325 77.6261C134.671 73.7213 131.437 68.1238 130.859 61.5111C129.702 48.2852 139.287 36.8621 152.513 35.705C158.738 35.1604 164.989 37.1618 169.853 41.2438C174.718 45.3257 177.774 51.1339 178.319 57.3589C179.265 70.4075 169.681 81.8292 156.665 83.1649Z" fill="#E7DEFF"/>
</svg>
