<svg width="346" height="121" viewBox="0 0 346 121" fill="none" xmlns="http://www.w3.org/2000/svg">
<path d="M79.8724 63.5899C93.6376 47.1852 93.5071 33.6516 93.4772 26.4301L93.5326 26.1996C93.4886 23.1181 92.2054 21.3491 91.1495 20.4631C90.0125 19.5091 88.116 18.4709 84.9243 18.9764C77.7947 20.0516 64.4989 22.0431 50.3932 38.8537L36.1565 42.1312L14.2017 63.8426L35.2449 62.6787C33.7138 65.8229 32.1831 68.9666 30.9505 72.0843C30.9505 72.0843 30.8826 72.1653 30.9636 72.2333L30.8956 72.3143L22.8982 97.0187C22.5548 98.2529 22.9029 99.6523 23.8773 100.47C24.8517 101.288 26.2222 101.468 27.4461 100.835L50.4673 88.737L50.5353 88.6559C50.5353 88.6559 50.6032 88.5749 50.6842 88.6429C53.5411 86.8881 56.3706 84.8343 59.2013 82.7805L61.6962 103.557L79.2653 78.1659L79.8724 63.5899ZM34.3045 87.8786L46.8723 65.0152L54.6689 71.5574L34.3045 87.8786ZM74.1345 50.4717C71.5956 50.6938 69.2636 49.8444 67.477 48.3452C65.6903 46.846 64.4487 44.6969 64.2267 42.1581C63.7824 37.0802 67.4625 32.6945 72.5403 32.2503C74.9302 32.0412 77.3301 32.8096 79.1978 34.3768C81.0656 35.944 82.239 38.1739 82.4481 40.5639C82.8113 45.5737 79.1317 49.9589 74.1345 50.4717Z" fill="#7A59FD"/>
<path d="M120.718 86.0005V36.881H132.59V56.5959H151.945V36.881H163.793V86.0005H151.945V66.2615H132.59V86.0005H120.718ZM192.508 70.099V49.1608H204.213V86.0005H193.036V79.141H192.652C191.837 81.3955 190.446 83.1863 188.479 84.5135C186.528 85.8246 184.17 86.4802 181.404 86.4802C178.893 86.4802 176.687 85.9046 174.784 84.7533C172.881 83.6021 171.402 81.9951 170.347 79.9325C169.292 77.8539 168.756 75.4235 168.74 72.6413V49.1608H180.468V70.3388C180.484 72.3375 181.012 73.9125 182.051 75.0637C183.091 76.215 184.506 76.7906 186.297 76.7906C187.464 76.7906 188.511 76.5347 189.438 76.0231C190.382 75.4954 191.125 74.7359 191.669 73.7446C192.229 72.7373 192.508 71.5221 192.508 70.099ZM209.178 86.0005V36.881H220.906V55.4687H221.146C221.626 54.3494 222.305 53.2701 223.184 52.2308C224.08 51.1915 225.215 50.3441 226.59 49.6885C227.981 49.0169 229.644 48.6812 231.579 48.6812C234.137 48.6812 236.528 49.3527 238.75 50.6958C240.989 52.0389 242.796 54.1096 244.171 56.9077C245.546 59.7059 246.233 63.2715 246.233 67.6047C246.233 71.7779 245.57 75.2716 244.243 78.0857C242.931 80.8999 241.157 83.0105 238.918 84.4175C236.696 85.8246 234.225 86.5281 231.507 86.5281C229.652 86.5281 228.045 86.2243 226.686 85.6167C225.327 85.0091 224.184 84.2097 223.256 83.2183C222.345 82.227 221.641 81.1637 221.146 80.0284H220.786V86.0005H209.178ZM220.666 67.5807C220.666 69.5634 220.93 71.2902 221.458 72.7612C222.001 74.2323 222.777 75.3755 223.784 76.191C224.807 76.9904 226.031 77.3902 227.454 77.3902C228.893 77.3902 230.116 76.9904 231.123 76.191C232.131 75.3755 232.89 74.2323 233.402 72.7612C233.929 71.2902 234.193 69.5634 234.193 67.5807C234.193 65.598 233.929 63.8791 233.402 62.4241C232.89 60.969 232.131 59.8418 231.123 59.0423C230.132 58.2428 228.909 57.8431 227.454 57.8431C226.015 57.8431 224.791 58.2348 223.784 59.0183C222.777 59.8018 222.001 60.9211 221.458 62.3761C220.93 63.8311 220.666 65.566 220.666 67.5807ZM249.879 86.0005V36.881H261.607V55.4687H261.847C262.327 54.3494 263.006 53.2701 263.886 52.2308C264.781 51.1915 265.917 50.3441 267.292 49.6885C268.683 49.0169 270.346 48.6812 272.28 48.6812C274.839 48.6812 277.229 49.3527 279.452 50.6958C281.69 52.0389 283.497 54.1096 284.872 56.9077C286.247 59.7059 286.935 63.2715 286.935 67.6047C286.935 71.7779 286.271 75.2716 284.944 78.0857C283.633 80.8999 281.858 83.0105 279.619 84.4175C277.397 85.8246 274.927 86.5281 272.208 86.5281C270.354 86.5281 268.747 86.2243 267.388 85.6167C266.028 85.0091 264.885 84.2097 263.958 83.2183C263.046 82.227 262.343 81.1637 261.847 80.0284H261.487V86.0005H249.879ZM261.368 67.5807C261.368 69.5634 261.631 71.2902 262.159 72.7612C262.703 74.2323 263.478 75.3755 264.486 76.191C265.509 76.9904 266.732 77.3902 268.155 77.3902C269.594 77.3902 270.817 76.9904 271.825 76.191C272.832 75.3755 273.591 74.2323 274.103 72.7612C274.631 71.2902 274.895 69.5634 274.895 67.5807C274.895 65.598 274.631 63.8791 274.103 62.4241C273.591 60.969 272.832 59.8418 271.825 59.0423C270.833 58.2428 269.61 57.8431 268.155 57.8431C266.716 57.8431 265.493 58.2348 264.486 59.0183C263.478 59.8018 262.703 60.9211 262.159 62.3761C261.631 63.8311 261.368 65.566 261.368 67.5807ZM302.309 36.881V86.0005H290.581V36.881H302.309ZM324.495 86.696C320.641 86.696 317.315 85.9365 314.517 84.4175C311.735 82.8826 309.592 80.7 308.089 77.8699C306.602 75.0237 305.859 71.642 305.859 67.7246C305.859 63.9191 306.61 60.5933 308.113 57.7472C309.616 54.8851 311.735 52.6625 314.469 51.0796C317.203 49.4806 320.425 48.6812 324.135 48.6812C326.757 48.6812 329.155 49.0889 331.33 49.9044C333.505 50.7198 335.383 51.927 336.966 53.526C338.549 55.1249 339.78 57.0996 340.66 59.45C341.539 61.7845 341.979 64.4627 341.979 67.4847V70.4108H309.96V63.5993H331.066C331.05 62.3521 330.754 61.2409 330.179 60.2655C329.603 59.2902 328.812 58.5307 327.804 57.987C326.813 57.4274 325.67 57.1476 324.375 57.1476C323.063 57.1476 321.888 57.4434 320.849 58.035C319.81 58.6106 318.986 59.4021 318.379 60.4094C317.771 61.4008 317.451 62.528 317.419 63.7912V70.7226C317.419 72.2256 317.715 73.5447 318.307 74.68C318.898 75.7992 319.738 76.6707 320.825 77.2942C321.912 77.9178 323.207 78.2296 324.71 78.2296C325.75 78.2296 326.693 78.0857 327.541 77.7979C328.388 77.5101 329.115 77.0864 329.723 76.5268C330.331 75.9671 330.786 75.2796 331.09 74.4641L341.859 74.7759C341.411 77.1903 340.428 79.2929 338.909 81.0837C337.406 82.8586 335.431 84.2417 332.985 85.233C330.539 86.2084 327.708 86.696 324.495 86.696Z" fill="#FFFBFF"/>
</svg>
