<svg width="24" height="25" viewBox="0 0 24 25" fill="none" xmlns="http://www.w3.org/2000/svg">
<path d="M23.8756 13.2255C23.8898 12.4003 23.8045 11.575 23.6242 10.7734H12.355V15.2271H18.9714C18.72 16.8065 17.8331 18.2104 16.5193 19.121L16.4956 19.2681L20.0575 22.0284L20.3042 22.0522C22.5666 19.9605 23.8756 16.8823 23.8756 13.2255Z" fill="#4285F4"/>
<path d="M12.3548 24.9601C15.5942 24.9601 18.3167 23.8929 20.304 22.0527L16.5191 19.1168C15.2907 19.942 13.8346 20.3594 12.3595 20.3167C9.24817 20.2978 6.49726 18.2868 5.5297 15.3271L5.38741 15.3414L1.68317 18.2061L1.63574 18.3389C3.66572 22.4036 7.8158 24.9648 12.3548 24.9601Z" fill="#34A853"/>
<path d="M5.52503 15.3318C5.26417 14.5682 5.12663 13.7667 5.12663 12.9556C5.13137 12.1493 5.26417 11.3478 5.51555 10.5794L5.5108 10.4229L1.75914 7.51074L1.63582 7.56766C-0.0716404 10.9589 -0.0716404 14.9524 1.63582 18.3436L5.52503 15.3318Z" fill="#FBBC05"/>
<path d="M12.3548 5.59928C14.0764 5.57082 15.7365 6.21112 16.9934 7.38737L20.3798 4.08154C18.2076 2.04207 15.3286 0.927481 12.35 0.960682C7.81102 0.960682 3.66094 3.51713 1.62622 7.57709L5.50595 10.5889C6.483 7.62926 9.23865 5.61825 12.3548 5.59928Z" fill="#EB4335"/>
</svg>
