<svg width="346" height="120" viewBox="0 0 346 120" fill="none" xmlns="http://www.w3.org/2000/svg">
<path d="M79.7085 63.0929C93.4737 46.6881 93.3432 33.1546 93.3132 25.9331L93.3686 25.7025C93.3247 22.621 92.0414 20.852 90.9855 19.966C89.8486 19.012 87.9521 17.9738 84.7603 18.4793C77.6307 19.5546 64.335 21.5461 50.2293 38.3566L35.9925 41.6342L14.0377 63.3455L35.0809 62.1816C33.5498 65.3259 32.0192 68.4696 30.7866 71.5873C30.7866 71.5873 30.7186 71.6683 30.7996 71.7362L30.7316 71.8173L22.7343 96.5216C22.3908 97.7558 22.7389 99.1552 23.7133 99.9728C24.6877 100.79 26.0583 100.971 27.2821 100.338L50.3034 88.2399L50.3713 88.1589C50.3713 88.1589 50.4393 88.0779 50.5203 88.1458C53.3771 86.391 56.2067 84.3372 59.0374 82.2834L61.5322 103.06L79.1013 77.6688L79.7085 63.0929ZM34.1405 87.3816L46.7084 64.5182L54.505 71.0603L34.1405 87.3816ZM73.9705 49.9747C71.4316 50.1968 69.0997 49.3473 67.313 47.8481C65.5264 46.3489 64.2848 44.1999 64.0627 41.661C63.6185 36.5832 67.2985 32.1974 72.3764 31.7532C74.7663 31.5441 77.1662 32.3125 79.0339 33.8797C80.9016 35.4469 82.0751 37.6769 82.2842 40.0668C82.6474 45.0767 78.9678 49.4618 73.9705 49.9747Z" fill="#FFFBFF"/>
<path d="M120.554 85.5034V36.3839H132.426V56.0989H151.781V36.3839H163.629V85.5034H151.781V65.7645H132.426V85.5034H120.554ZM192.344 69.6019V48.6638H204.049V85.5034H192.872V78.644H192.488C191.673 80.8985 190.282 82.6893 188.315 84.0164C186.364 85.3275 184.006 85.9831 181.24 85.9831C178.729 85.9831 176.523 85.4075 174.62 84.2562C172.717 83.105 171.238 81.4981 170.183 79.4354C169.128 77.3568 168.592 74.9264 168.576 72.1443V48.6638H180.304V69.8418C180.32 71.8405 180.848 73.4154 181.887 74.5666C182.927 75.7179 184.342 76.2935 186.133 76.2935C187.3 76.2935 188.347 76.0377 189.275 75.526C190.218 74.9984 190.961 74.2389 191.505 73.2475C192.065 72.2402 192.344 71.025 192.344 69.6019ZM209.014 85.5034V36.3839H220.742V54.9716H220.982C221.462 53.8523 222.141 52.7731 223.021 51.7337C223.916 50.6944 225.051 49.847 226.426 49.1914C227.817 48.5199 229.48 48.1841 231.415 48.1841C233.973 48.1841 236.364 48.8557 238.586 50.1988C240.825 51.5419 242.632 53.6125 244.007 56.4107C245.382 59.2088 246.069 62.7744 246.069 67.1076C246.069 71.2808 245.406 74.7745 244.079 77.5887C242.767 80.4028 240.993 82.5134 238.754 83.9205C236.532 85.3275 234.061 86.0311 231.343 86.0311C229.488 86.0311 227.881 85.7273 226.522 85.1197C225.163 84.5121 224.02 83.7126 223.092 82.7213C222.181 81.7299 221.478 80.6666 220.982 79.5314H220.622V85.5034H209.014ZM220.502 67.0836C220.502 69.0663 220.766 70.7931 221.294 72.2642C221.837 73.7352 222.613 74.8784 223.62 75.6939C224.643 76.4934 225.867 76.8931 227.29 76.8931C228.729 76.8931 229.952 76.4934 230.959 75.6939C231.967 74.8784 232.726 73.7352 233.238 72.2642C233.765 70.7931 234.029 69.0663 234.029 67.0836C234.029 65.1009 233.765 63.382 233.238 61.927C232.726 60.472 231.967 59.3447 230.959 58.5452C229.968 57.7458 228.745 57.346 227.29 57.346C225.851 57.346 224.627 57.7378 223.62 58.5213C222.613 59.3047 221.837 60.424 221.294 61.879C220.766 63.3341 220.502 65.0689 220.502 67.0836ZM249.715 85.5034V36.3839H261.443V54.9716H261.683C262.163 53.8523 262.843 52.7731 263.722 51.7337C264.617 50.6944 265.753 49.847 267.128 49.1914C268.519 48.5199 270.182 48.1841 272.116 48.1841C274.675 48.1841 277.065 48.8557 279.288 50.1988C281.526 51.5419 283.333 53.6125 284.708 56.4107C286.083 59.2088 286.771 62.7744 286.771 67.1076C286.771 71.2808 286.107 74.7745 284.78 77.5887C283.469 80.4028 281.694 82.5134 279.456 83.9205C277.233 85.3275 274.763 86.0311 272.044 86.0311C270.19 86.0311 268.583 85.7273 267.224 85.1197C265.865 84.5121 264.721 83.7126 263.794 82.7213C262.883 81.7299 262.179 80.6666 261.683 79.5314H261.324V85.5034H249.715ZM261.204 67.0836C261.204 69.0663 261.467 70.7931 261.995 72.2642C262.539 73.7352 263.314 74.8784 264.322 75.6939C265.345 76.4934 266.568 76.8931 267.991 76.8931C269.43 76.8931 270.653 76.4934 271.661 75.6939C272.668 74.8784 273.428 73.7352 273.939 72.2642C274.467 70.7931 274.731 69.0663 274.731 67.0836C274.731 65.1009 274.467 63.382 273.939 61.927C273.428 60.472 272.668 59.3447 271.661 58.5452C270.669 57.7458 269.446 57.346 267.991 57.346C266.552 57.346 265.329 57.7378 264.322 58.5213C263.314 59.3047 262.539 60.424 261.995 61.879C261.467 63.3341 261.204 65.0689 261.204 67.0836ZM302.145 36.3839V85.5034H290.417V36.3839H302.145ZM324.331 86.199C320.477 86.199 317.151 85.4395 314.353 83.9205C311.571 82.3855 309.428 80.2029 307.925 77.3728C306.438 74.5267 305.695 71.1449 305.695 67.2275C305.695 63.422 306.446 60.0962 307.949 57.2501C309.452 54.388 311.571 52.1655 314.305 50.5825C317.039 48.9836 320.261 48.1841 323.971 48.1841C326.593 48.1841 328.991 48.5918 331.166 49.4073C333.341 50.2227 335.219 51.4299 336.802 53.0289C338.385 54.6278 339.616 56.6025 340.496 58.953C341.375 61.2874 341.815 63.9657 341.815 66.9877V69.9137H309.796V63.1022H330.902C330.886 61.8551 330.59 60.7438 330.015 59.7684C329.439 58.7931 328.648 58.0336 327.64 57.4899C326.649 56.9303 325.506 56.6505 324.211 56.6505C322.9 56.6505 321.724 56.9463 320.685 57.5379C319.646 58.1135 318.822 58.905 318.215 59.9123C317.607 60.9037 317.287 62.0309 317.255 63.2941V70.2255C317.255 71.7285 317.551 73.0477 318.143 74.1829C318.734 75.3022 319.574 76.1736 320.661 76.7972C321.748 77.4208 323.043 77.7326 324.546 77.7326C325.586 77.7326 326.529 77.5887 327.377 77.3008C328.224 77.013 328.952 76.5893 329.559 76.0297C330.167 75.4701 330.622 74.7825 330.926 73.967L341.695 74.2788C341.247 76.6932 340.264 78.7959 338.745 80.5867C337.242 82.3615 335.267 83.7446 332.821 84.7359C330.375 85.7113 327.544 86.199 324.331 86.199Z" fill="#FFFBFF"/>
</svg>
